<?xml version="1.0" standalone="no"?>
<!DOCTYPE svg PUBLIC "-//W3C//DTD SVG 20010904//EN"
 "http://www.w3.org/TR/2001/REC-SVG-20010904/DTD/svg10.dtd">
<svg version="1.0" xmlns="http://www.w3.org/2000/svg"
 width="1051.000000pt" height="1051.000000pt" viewBox="0 0 1051.000000 1051.000000"
 preserveAspectRatio="xMidYMid meet">

<g transform="translate(0.000000,1051.000000) scale(0.100000,-0.100000)"
fill="#000000" stroke="none">
<path d="M4810 10489 c-1560 -136 -2970 -953 -3867 -2240 -529 -759 -844
-1635 -923 -2564 -13 -155 -13 -705 0 -860 133 -1569 949 -2982 2241 -3882
759 -529 1635 -844 2564 -923 155 -13 705 -13 860 0 929 79 1805 394 2564 923
1292 900 2108 2313 2241 3882 5 66 10 260 10 430 0 171 -5 364 -10 430 -133
1569 -949 2982 -2241 3882 -759 529 -1635 844 -2564 923 -140 11 -737 11 -875
-1z m831 -100 c1094 -86 2070 -485 2934 -1200 129 -107 507 -485 614 -614 715
-864 1114 -1840 1200 -2934 14 -174 14 -598 0 -772 -86 -1094 -485 -2070
-1200 -2934 -107 -129 -485 -507 -614 -614 -864 -715 -1840 -1114 -2934 -1200
-174 -14 -598 -14 -772 0 -1094 86 -2070 485 -2934 1200 -129 107 -507 485
-614 614 -715 864 -1114 1840 -1200 2934 -14 174 -14 598 0 772 86 1094 485
2070 1200 2934 107 129 485 507 614 614 856 709 1837 1112 2915 1200 154 12
635 13 791 0z"/>
<path d="M5015 10104 c-1444 -79 -2754 -771 -3624 -1914 -544 -714 -871 -1547
-967 -2465 -25 -236 -25 -704 0 -940 69 -657 253 -1264 552 -1820 715 -1327
1987 -2243 3465 -2494 293 -50 480 -65 814 -65 517 0 954 64 1430 210 1536
470 2767 1713 3220 3249 141 479 199 881 199 1390 0 333 -15 515 -65 814 -342
2027 -1942 3628 -3969 3970 -96 16 -247 37 -335 46 -156 15 -580 26 -720 19z
m579 -465 c6 -6 174 -563 171 -567 -1 -1 -38 0 -82 4 l-80 7 -12 53 c-12 52
-13 53 -54 59 -24 4 -58 5 -76 3 -30 -3 -36 -8 -53 -53 l-19 -50 -79 3 c-44 2
-80 6 -80 10 0 6 213 488 232 526 8 15 19 18 69 14 32 -2 60 -6 63 -9z m-685
-25 c59 -17 60 -19 21 -109 -17 -40 -22 -45 -39 -36 -65 35 -171 32 -171 -4 0
-19 25 -30 122 -50 129 -27 173 -72 173 -176 -1 -46 -6 -63 -29 -94 -56 -73
-178 -100 -315 -71 -41 9 -79 20 -84 25 -6 6 -1 35 13 76 20 60 24 66 44 60
134 -41 206 -43 206 -5 0 20 -9 24 -139 55 -83 20 -127 53 -142 107 -24 91 18
180 106 219 51 23 162 25 234 3z m1141 -29 c142 -27 183 -42 217 -77 84 -87
82 -200 -5 -286 l-44 -42 36 -101 c20 -55 36 -104 36 -109 0 -6 -103 11 -151
25 -9 3 -29 45 -49 99 -29 82 -37 95 -59 99 -14 3 -27 4 -28 3 -1 -1 -10 -38
-19 -81 -10 -44 -18 -81 -19 -83 -3 -4 -136 25 -142 32 -5 5 88 491 102 534 3
7 13 11 22 8 10 -2 56 -12 103 -21z m-1646 -291 c92 -135 166 -247 165 -248
-5 -4 -136 -36 -148 -36 -5 0 -21 20 -35 45 -15 25 -31 45 -37 45 -5 0 -39 -7
-74 -16 l-65 -16 0 -58 0 -58 -81 -20 -81 -20 5 41 c3 23 18 158 33 299 l28
257 56 14 c30 8 57 15 60 16 3 1 81 -110 174 -245z m2383 86 c63 -32 106 -79
122 -138 11 -37 13 -35 -63 -56 -59 -17 -75 -13 -76 18 0 6 -12 23 -27 38 -21
22 -36 28 -68 28 -50 0 -86 -29 -115 -92 -53 -117 16 -217 128 -186 l37 11
-43 19 c-38 17 -43 23 -38 43 10 41 25 75 33 75 4 0 53 -16 109 -36 l103 -36
-44 -122 c-61 -171 -54 -158 -83 -151 -62 15 -94 34 -88 52 5 16 -1 18 -57 15
-57 -3 -67 -1 -111 30 -33 22 -60 52 -80 88 -28 50 -31 63 -31 140 0 70 4 93
24 130 77 147 227 200 368 130z m-2979 -56 c97 -48 157 -152 157 -269 -1 -134
-64 -203 -254 -280 -66 -27 -122 -47 -124 -44 -8 10 -208 511 -205 514 6 5
223 93 243 98 57 14 132 6 183 -19z m3488 -170 c90 -47 164 -90 164 -95 0 -13
-49 -109 -55 -109 -3 0 -50 23 -105 50 -55 28 -102 50 -105 50 -6 0 -38 -61
-33 -64 2 -2 43 -24 91 -50 85 -46 88 -48 74 -69 -8 -12 -22 -37 -31 -55 l-17
-33 -83 46 c-46 25 -86 45 -89 45 -7 0 -50 -70 -46 -74 2 -2 50 -27 107 -55
56 -28 102 -56 102 -61 0 -18 -50 -110 -59 -110 -19 0 -343 176 -343 185 1 19
247 485 256 485 4 0 82 -39 172 -86z m-3980 -259 c122 -99 222 -184 221 -188
-2 -5 -33 -25 -69 -45 l-67 -37 -40 39 -39 38 -54 -31 c-29 -17 -58 -34 -65
-39 -10 -6 -9 -20 2 -62 8 -30 13 -55 12 -55 -80 -49 -127 -75 -134 -75 -4 0
-21 73 -36 163 -16 89 -39 219 -51 290 l-23 127 46 30 c25 16 52 28 60 27 8
-1 114 -83 237 -182z m4345 49 l49 -36 1 -86 c1 -48 4 -127 8 -177 l6 -90 79
110 c43 61 80 112 82 114 3 3 91 -57 118 -80 8 -7 -293 -441 -314 -454 -5 -3
-29 9 -54 26 -52 37 -52 37 -62 241 -3 76 -10 136 -14 133 -5 -3 -40 -50 -80
-105 -39 -55 -73 -100 -76 -100 -2 0 -31 19 -64 43 l-59 43 162 227 c89 125
163 227 166 227 2 0 25 -16 52 -36z m-4782 -339 l161 -200 -38 -32 c-20 -18
-44 -35 -53 -38 -9 -3 -89 10 -178 30 -89 19 -164 35 -167 35 -2 0 35 -48 82
-106 48 -58 83 -109 78 -113 -5 -4 -32 -26 -60 -49 l-52 -42 -162 203 c-90
111 -169 209 -177 218 -12 14 -8 21 33 54 l46 38 162 -36 c89 -21 167 -37 175
-37 7 0 -27 48 -74 106 -48 58 -83 110 -78 114 4 5 31 26 58 49 47 37 51 39
67 23 9 -9 89 -107 177 -217z m2751 175 c686 -79 1297 -331 1829 -753 154
-122 436 -403 555 -552 96 -121 237 -326 309 -450 72 -125 201 -398 250 -531
76 -203 142 -454 182 -687 l6 -38 -67 3 -66 3 -33 160 c-228 1107 -973 2017
-2015 2463 -414 177 -854 265 -1325 265 -390 0 -705 -50 -1070 -170 -1007
-331 -1819 -1137 -2159 -2145 -51 -151 -109 -377 -128 -499 l-12 -79 -69 0
-68 0 6 38 c64 376 160 672 325 1007 190 386 404 680 706 975 201 196 398 351
616 484 459 281 979 457 1493 506 61 5 128 12 150 14 72 7 488 -3 585 -14z
m2820 -496 c12 -13 7 -22 -33 -62 l-47 -47 -56 55 -56 55 -148 -155 -149 -155
-55 54 -55 54 146 154 146 154 -56 57 -57 57 47 47 47 47 157 -150 c86 -82
162 -156 169 -165z m-6085 -119 c132 -54 242 -100 244 -101 2 -2 -20 -30 -48
-63 l-52 -60 -53 24 -53 23 -51 -51 -51 -52 28 -51 29 -51 -53 -59 c-29 -32
-55 -57 -57 -54 -8 8 -268 518 -268 524 0 4 18 26 41 51 40 43 42 44 73 31 17
-7 139 -57 271 -111z m6264 -88 c7 -10 9 -22 5 -27 -35 -33 -410 -350 -414
-350 -7 0 -89 96 -92 108 -2 6 91 91 207 190 l210 180 35 -41 c19 -22 41 -49
49 -60z m-6681 -165 c45 -20 89 -76 102 -132 13 -56 1 -101 -48 -172 l-32 -47
65 -46 c36 -26 65 -52 65 -57 0 -22 -81 -119 -93 -112 -33 19 -427 306 -433
315 -7 12 125 198 166 233 29 24 40 28 95 39 28 5 74 -3 113 -21z m6842 -31
l31 -50 -51 -161 c-28 -89 -49 -164 -47 -167 3 -3 55 29 115 71 l109 75 41
-60 c23 -33 42 -64 42 -67 -1 -8 -438 -305 -455 -310 -5 -1 -24 20 -42 47
l-32 49 49 158 c27 88 50 162 50 167 0 4 -50 -26 -112 -67 l-112 -75 -42 62
c-23 34 -39 65 -35 69 10 11 445 307 452 307 4 1 21 -21 39 -48z m-6831 -627
c4 -4 -68 -134 -75 -134 -2 0 -56 28 -120 61 -63 34 -117 59 -119 57 -2 -2 25
-40 61 -85 l64 -81 -17 -37 -18 -37 -110 6 -110 7 126 -68 127 -68 -34 -68
-34 -67 -238 120 c-130 66 -243 123 -250 128 -11 7 -6 24 23 82 l37 73 143 -5
c104 -4 142 -2 138 6 -4 6 -42 55 -85 110 -43 54 -78 102 -78 107 0 5 16 41
35 80 l36 70 247 -127 c136 -70 249 -128 251 -130z m7258 -88 l26 -54 -33 -39
c-18 -21 -111 -119 -206 -217 l-172 -179 -37 74 -38 73 44 38 43 37 -32 68
c-18 37 -36 67 -40 67 -4 -1 -30 -5 -58 -9 l-51 -6 -32 71 c-18 40 -31 74 -29
75 3 3 511 52 561 54 24 1 31 -6 54 -53z m-5348 -261 c49 -56 74 -114 73 -170
0 -34 -28 -138 -87 -325 -108 -345 -184 -605 -229 -785 -39 -159 -69 -305 -64
-310 5 -6 581 997 643 1120 61 121 89 160 122 170 34 9 58 -23 87 -115 38
-120 35 -148 -40 -365 -144 -419 -199 -714 -211 -1125 -14 -523 66 -776 275
-872 78 -35 83 -59 20 -88 -52 -24 -89 -25 -179 -4 -213 48 -348 260 -395 618
-22 167 -14 471 20 746 14 112 24 206 22 207 -2 2 -98 -158 -214 -356 l-211
-359 -11 -168 c-6 -92 -10 -213 -9 -269 2 -62 -2 -108 -9 -121 -18 -34 -112
-113 -165 -140 -46 -24 -50 -24 -74 -9 -14 9 -35 38 -46 63 -19 41 -22 64 -21
167 2 187 70 657 155 1074 22 106 38 195 37 196 -2 2 -50 -70 -106 -159 -464
-725 -838 -1080 -1248 -1183 -104 -26 -352 -23 -457 5 -113 31 -199 75 -266
138 -109 101 -146 192 -146 364 0 131 19 203 81 306 151 252 525 421 884 399
200 -11 333 -37 428 -82 85 -40 100 -105 31 -133 -25 -11 -37 -7 -111 28 -97
47 -167 67 -298 83 -319 38 -643 -116 -759 -361 -22 -46 -26 -69 -26 -140 0
-74 4 -93 29 -144 16 -32 55 -85 86 -116 219 -219 610 -191 955 67 184 137
471 456 651 723 180 267 379 651 479 925 57 158 176 449 201 493 32 54 60 56
103 7z m-2609 -119 c0 -7 -16 -58 -34 -114 l-35 -103 25 -9 c46 -18 51 -13 84
84 l31 94 60 -20 c32 -11 59 -21 59 -22 0 -1 -13 -42 -30 -91 -16 -49 -30 -92
-30 -96 0 -7 54 -29 71 -29 4 0 24 51 45 113 20 61 38 113 39 114 3 5 125 -39
125 -45 0 -4 -27 -89 -61 -190 -38 -114 -65 -182 -73 -179 -6 2 -125 41 -263
86 -139 45 -253 85 -253 89 0 4 27 89 61 189 l60 181 60 -20 c32 -11 59 -25
59 -32z m8078 -30 c83 -43 136 -179 117 -302 l-7 -46 -55 7 c-83 10 -80 7 -79
95 1 62 -3 83 -16 96 -35 35 -46 12 -49 -103 -5 -130 -21 -166 -89 -200 -157
-80 -289 65 -278 307 l3 75 30 -2 c17 -1 50 -5 74 -8 l43 -7 -6 -62 c-11 -98
15 -184 47 -157 11 8 16 41 19 114 4 118 22 161 78 189 42 22 130 23 168 4z
m-3078 -711 c15 -18 15 -16 -96 -388 -161 -540 -240 -858 -231 -934 10 -90 77
-119 200 -88 77 19 97 16 97 -19 0 -33 -64 -88 -136 -117 -47 -18 -80 -23
-160 -23 -96 -1 -102 0 -138 28 -22 16 -47 49 -58 74 -18 40 -20 60 -15 156 6
135 35 252 207 841 123 421 136 455 185 475 36 15 131 11 145 -5z m1718 -126
c47 -16 49 -72 4 -123 -81 -92 -336 -177 -394 -132 -21 16 -23 26 -5 26 21 0
169 106 242 174 74 68 94 76 153 55z m126 -401 c8 -14 6 -33 -12 -81 -31 -88
-43 -168 -31 -212 11 -38 39 -56 139 -86 47 -15 62 -38 40 -64 -9 -10 -33 -15
-76 -15 -55 0 -64 -3 -64 -18 0 -37 -32 -140 -66 -211 -112 -239 -277 -361
-489 -361 -136 0 -248 86 -279 215 -12 49 -7 166 9 230 30 116 81 203 174 296
101 100 203 158 331 185 66 14 79 21 84 40 8 32 58 79 98 91 50 17 129 12 142
-9z m-2847 -84 c8 -21 -7 -34 -65 -53 -237 -81 -482 -401 -482 -631 0 -108 55
-132 132 -57 102 99 247 305 378 536 59 103 81 134 107 146 40 19 147 24 164
8 9 -9 -2 -47 -49 -170 -89 -233 -113 -321 -119 -440 -5 -86 -3 -107 12 -129
16 -25 20 -26 78 -21 34 3 74 9 89 12 20 5 29 2 37 -13 27 -50 -91 -140 -198
-149 -32 -3 -75 -3 -95 1 -41 8 -100 55 -122 97 -20 40 -18 165 6 279 11 52
20 97 20 99 0 2 -28 -40 -63 -95 -87 -137 -141 -209 -206 -275 -74 -73 -136
-103 -227 -107 -69 -4 -72 -3 -109 29 -57 50 -78 107 -78 209 -1 96 18 171 65
264 98 194 251 343 431 419 124 52 281 74 294 41z m1393 -3 c19 -10 47 -38 62
-62 47 -76 58 -143 58 -359 l1 -195 34 40 c35 41 100 145 238 379 122 208 163
241 223 181 31 -31 30 -35 -41 -180 -103 -210 -286 -463 -463 -642 -119 -119
-185 -149 -227 -103 -17 19 -18 28 -6 138 19 180 25 436 12 520 -22 138 -53
167 -151 137 -48 -15 -62 -16 -75 -5 -23 19 -18 43 18 77 85 82 236 118 317
74z m2578 -8 c2 -12 -28 -114 -67 -227 -80 -235 -106 -352 -98 -443 11 -116
44 -145 136 -123 56 13 71 8 71 -22 0 -33 -35 -72 -92 -103 -46 -26 -63 -30
-135 -30 -77 0 -83 2 -114 30 -55 52 -69 96 -69 220 0 101 29 290 55 360 9 23
-28 -27 -186 -255 -179 -258 -256 -330 -353 -330 -73 0 -73 10 -6 216 62 190
110 395 110 469 0 71 -21 109 -69 128 -22 9 -41 21 -41 27 0 18 74 59 134 74
74 20 124 9 160 -35 23 -27 26 -39 26 -107 0 -82 -20 -219 -45 -316 -9 -32
-14 -60 -12 -62 2 -2 52 70 111 159 184 281 317 400 441 394 33 -2 41 -6 43
-24z m-7152 -1406 c168 -430 437 -840 769 -1172 490 -491 1100 -813 1785 -944
390 -74 860 -74 1250 0 876 167 1629 650 2154 1379 147 203 310 506 396 732
l45 118 68 0 c42 0 67 -4 67 -11 0 -24 -106 -281 -171 -414 -166 -341 -378
-642 -649 -919 -209 -214 -420 -387 -642 -525 -477 -298 -965 -467 -1533 -533
-142 -16 -578 -16 -720 0 -545 63 -1025 225 -1475 497 -556 336 -1029 847
-1326 1433 -67 131 -194 434 -194 461 0 8 21 11 67 9 l67 -3 42 -108z m-139
-728 c51 -85 91 -158 89 -164 -2 -9 -74 -54 -87 -55 -3 0 -34 47 -68 105 -34
58 -64 105 -67 105 -14 0 -84 -44 -84 -53 0 -5 23 -46 50 -92 28 -46 50 -87
50 -92 0 -8 -17 -19 -82 -51 -3 -2 -30 38 -58 87 -29 50 -57 91 -62 91 -5 0
-29 -12 -54 -26 -50 -30 -53 -15 32 -156 30 -49 54 -92 54 -96 0 -4 -21 -19
-47 -34 l-47 -26 -98 165 c-54 91 -98 168 -98 172 1 10 464 281 475 277 6 -1
52 -72 102 -157z m6969 83 c209 -107 206 -412 -5 -505 -65 -28 -160 -27 -229
3 -67 29 -135 103 -158 172 -44 135 30 294 161 343 58 21 178 15 231 -13z
m-6782 -371 c20 -27 36 -51 36 -54 0 -2 -76 -64 -170 -136 -93 -73 -170 -135
-170 -139 0 -3 34 -50 75 -104 41 -54 75 -102 75 -107 0 -5 -19 -23 -41 -40
l-41 -30 -22 27 c-80 98 -217 284 -214 291 2 7 427 339 435 341 1 0 17 -22 37
-49z m6436 -199 c253 -212 229 -183 189 -230 l-34 -40 -205 5 -205 6 122 -103
c134 -113 129 -100 71 -169 -16 -19 -33 -29 -39 -25 -13 8 -386 318 -409 340
-12 12 -10 19 20 50 l35 36 209 -4 c189 -4 207 -3 189 11 -10 9 -67 56 -126
105 -105 87 -107 89 -90 110 47 57 67 75 77 69 6 -4 94 -76 196 -161z m-6036
-271 l38 -39 -122 -264 c-67 -144 -124 -265 -126 -268 -3 -2 -25 16 -50 41
l-44 45 27 62 27 63 -61 60 -60 61 -60 -30 -60 -31 -47 48 -47 47 258 121
c142 67 265 122 273 122 9 1 33 -17 54 -38z m5578 -247 c139 -74 257 -139 261
-143 5 -5 -14 -27 -41 -49 l-49 -42 -57 31 -56 31 -38 -30 c-20 -17 -49 -43
-65 -59 l-27 -30 26 -58 26 -59 -49 -42 c-26 -23 -51 -39 -54 -36 -4 4 -54
128 -112 276 l-106 269 42 38 c23 21 43 38 44 39 2 0 116 -61 255 -136z
m-5212 -71 c164 -124 183 -157 140 -250 -22 -49 -70 -83 -117 -83 -31 0 -32
-1 -23 -26 14 -36 12 -91 -4 -122 -39 -75 -110 -99 -189 -64 -64 28 -279 193
-273 209 9 22 320 432 329 432 4 1 66 -43 137 -96z m4832 -278 c81 -126 145
-232 143 -235 -2 -3 -26 -20 -54 -37 l-50 -31 -77 121 c-42 67 -84 129 -91
137 -13 13 -14 12 -9 -10 3 -14 10 -72 16 -129 11 -104 11 -105 -12 -123 -13
-9 -27 -18 -32 -18 -6 0 -57 27 -114 61 -57 33 -105 59 -107 57 -2 -2 30 -55
71 -118 41 -63 79 -122 84 -131 8 -13 -1 -24 -44 -52 l-54 -36 -151 234 c-83
128 -151 236 -151 238 0 3 15 14 33 25 19 11 45 27 58 35 23 16 28 14 159 -63
118 -69 135 -77 138 -60 2 11 -4 81 -13 156 -8 75 -13 139 -11 142 19 18 103
70 111 68 5 -1 76 -105 157 -231z m-4337 -49 c122 -56 184 -189 150 -319 -26
-100 -81 -161 -180 -203 -62 -26 -171 -15 -232 22 -58 36 -109 100 -124 157
-15 55 -7 163 16 207 34 68 106 130 175 151 54 16 143 10 195 -15z m472 -221
c65 -25 129 -53 142 -63 30 -22 60 -78 67 -124 13 -78 -42 -175 -111 -198 -41
-13 -40 -11 -15 -145 10 -55 17 -101 16 -102 -1 -1 -30 8 -66 21 -72 26 -71
26 -91 145 -12 80 -14 84 -46 97 -18 8 -37 14 -42 14 -5 0 -22 -36 -38 -80
-15 -44 -31 -80 -35 -80 -4 0 -32 9 -63 21 -45 17 -55 24 -50 37 4 10 43 114
86 232 103 279 99 270 114 270 7 0 66 -20 132 -45z m3031 -206 c107 -121 192
-222 190 -223 -1 -1 -30 -12 -63 -25 -49 -18 -61 -20 -70 -8 -5 7 -24 30 -41
50 l-31 38 -82 -32 -82 -31 2 -66 2 -66 -57 -24 c-32 -12 -60 -22 -61 -20 -2
2 -6 136 -10 298 l-7 295 43 17 c24 9 51 17 59 17 8 1 102 -98 208 -220z
m-2455 35 c25 -4 37 -12 37 -23 1 -9 18 -141 39 -293 42 -313 46 -290 -45
-267 -47 12 -48 13 -59 100 l-6 45 -62 13 c-34 7 -72 15 -83 17 -17 5 -28 -5
-54 -48 -18 -29 -34 -54 -35 -56 -7 -8 -125 24 -123 33 2 6 72 120 157 254
134 210 157 242 175 237 12 -3 38 -9 59 -12z m1715 -25 c37 -12 37 -10 17 -77
-14 -45 -18 -51 -34 -43 -10 6 -40 13 -68 17 -63 8 -119 -9 -129 -38 -11 -36
24 -54 129 -66 109 -12 150 -29 177 -75 62 -101 16 -213 -104 -254 -94 -31
-286 -16 -286 23 0 7 6 34 12 59 11 39 16 45 33 40 11 -3 49 -10 85 -16 80
-14 143 2 148 38 5 32 -31 49 -130 61 -48 6 -101 18 -117 26 -112 59 -100 229
22 293 62 32 163 37 245 12z m-1139 -65 c116 -34 188 -146 178 -279 -10 -126
-65 -208 -165 -246 -52 -19 -69 -20 -188 -14 -72 4 -136 10 -142 14 -9 5 -7
71 8 257 11 137 20 260 20 273 l0 24 120 -7 c66 -4 142 -14 169 -22z m644
-255 c65 -150 116 -273 115 -274 -2 -1 -30 -5 -64 -9 l-61 -7 -26 61 -26 60
-78 0 c-43 0 -83 -4 -89 -8 -6 -4 -16 -29 -24 -57 -7 -27 -20 -56 -28 -62 -13
-11 -122 -20 -122 -10 0 1 38 128 84 282 l83 280 39 6 c84 13 69 34 197 -262z"/>
<path d="M5516 9462 c-6 -11 -56 -151 -56 -159 0 -2 23 -3 50 -3 47 0 50 1 45
23 -3 12 -11 51 -18 87 -8 38 -16 60 -21 52z"/>
<path d="M6039 9392 c-13 -62 -10 -66 54 -76 50 -8 77 13 77 59 0 40 -12 50
-72 63 l-47 9 -12 -55z"/>
<path d="M4210 9266 l0 -93 45 10 c25 6 45 14 45 19 0 11 -80 158 -86 158 -2
0 -4 -42 -4 -94z"/>
<path d="M3608 9192 l-36 -17 52 -127 c29 -70 55 -130 58 -133 12 -12 99 38
113 66 34 65 5 171 -58 209 -39 24 -80 25 -129 2z"/>
<path d="M3113 8895 c3 -11 13 -47 22 -80 9 -33 18 -66 21 -73 3 -10 14 -8 44
9 22 13 40 25 40 29 0 3 -30 35 -66 70 -40 40 -64 57 -61 45z"/>
<path d="M2171 8083 c13 -21 34 -56 47 -77 l25 -40 28 35 c16 19 29 37 29 41
0 7 -132 78 -146 78 -3 0 5 -17 17 -37z"/>
<path d="M1796 7756 c-14 -19 -26 -39 -26 -43 0 -5 20 -23 44 -40 l45 -32 25
34 c33 43 33 68 0 94 -37 29 -58 26 -88 -13z"/>
<path d="M8962 7075 c-34 -7 -65 -15 -68 -17 -2 -3 4 -24 14 -48 l18 -42 67
57 c37 32 67 59 67 61 0 6 -29 3 -98 -11z"/>
<path d="M7780 5308 c-65 -31 -179 -152 -222 -234 -92 -175 -89 -377 6 -435
62 -38 168 -18 243 45 68 57 179 262 198 366 6 33 4 36 -30 54 -74 40 -125
126 -125 211 0 20 -17 19 -70 -7z"/>
<path d="M8700 3263 c-114 -59 -102 -212 22 -272 87 -42 173 -17 212 62 59
120 -111 273 -234 210z"/>
<path d="M2318 2383 c-43 -20 -78 -39 -78 -43 0 -3 19 -25 43 -48 l43 -42 42
85 c23 47 39 85 34 85 -4 0 -42 -17 -84 -37z"/>
<path d="M7912 2252 c2 -5 18 -45 37 -90 l34 -81 49 40 c26 23 48 42 48 44 0
5 -158 95 -165 95 -4 0 -5 -4 -3 -8z"/>
<path d="M2751 2099 l-30 -42 56 -43 c61 -48 91 -54 116 -26 32 35 22 66 -38
111 -30 22 -58 41 -64 41 -5 0 -23 -19 -40 -41z"/>
<path d="M2621 1928 c-17 -23 -30 -45 -29 -49 7 -18 124 -99 143 -99 35 0 60
35 56 81 -1 13 -119 109 -134 109 -3 0 -19 -19 -36 -42z"/>
<path d="M3237 1786 c-65 -24 -107 -78 -122 -157 -12 -66 35 -140 102 -158
101 -28 215 86 200 199 -7 56 -31 88 -80 111 -50 22 -51 22 -100 5z"/>
<path d="M3771 1495 c-13 -37 -20 -70 -15 -74 21 -18 107 -43 130 -37 31 8 59
64 50 101 -7 26 -53 54 -116 70 -24 6 -27 2 -49 -60z"/>
<path d="M6691 1450 c1 -41 4 -87 8 -101 l6 -26 53 20 c28 11 52 23 52 28 0 6
-72 99 -112 144 -4 5 -7 -24 -7 -65z"/>
<path d="M4330 1272 c-25 -42 -46 -81 -48 -88 -3 -10 105 -41 113 -32 4 4 -14
190 -18 195 -1 1 -22 -33 -47 -75z"/>
<path d="M4836 1214 c-3 -55 -9 -129 -12 -165 l-6 -66 50 -6 c66 -8 115 7 146
44 67 80 53 224 -26 265 -17 9 -57 19 -88 21 l-57 6 -7 -99z"/>
<path d="M5459 1165 l-26 -95 64 0 c34 0 63 2 63 5 0 6 -71 185 -74 185 -1 0
-13 -43 -27 -95z"/>
</g>
</svg>
